<?xml version="1.0" encoding="utf-8"?>

<!DOCTYPE svg PUBLIC "-//W3C//DTD SVG 1.1//EN" "http://www.w3.org/Graphics/SVG/1.1/DTD/svg11.dtd">
<!-- Uploaded to: SVG Repo, www.svgrepo.com, Generator: SVG Repo Mixer Tools -->
<svg version="1.1" id="_x32_" xmlns="http://www.w3.org/2000/svg" xmlns:xlink="http://www.w3.org/1999/xlink" 
	 viewBox="0 0 512 512"  xml:space="preserve">
<style type="text/css">
	.st0{fill:#000000;}
</style>
<g>
	<path class="st0" d="M488.626,164.239c-7.794-7.813-18.666-12.684-30.578-12.676H409.01V77.861L331.145,0h-4.225H102.99v151.564
		H53.955c-11.923-0.008-22.802,4.862-30.597,12.676c-7.806,7.798-12.665,18.671-12.657,30.574v170.937
		c-0.008,11.919,4.847,22.806,12.661,30.589c7.794,7.813,18.678,12.669,30.593,12.661h49.034V512h306.02V409.001h49.037
		c11.901,0.008,22.78-4.848,30.574-12.661c7.818-7.784,12.684-18.67,12.677-30.589V194.814
		C501.306,182.91,496.436,172.038,488.626,164.239z M323.519,21.224l62.326,62.326h-62.326V21.224z M123.392,20.398l179.725,0.015
		v83.542h85.491v47.609H123.392V20.398z M388.608,491.602H123.392v-92.801h-0.016v-96.638h265.217v106.838h0.015V491.602z
		 M480.896,365.751c-0.004,6.353-2.546,11.996-6.694,16.17c-4.166,4.136-9.813,6.667-16.155,6.682h-49.049V281.75H102.974v106.853
		H53.955c-6.365-0.015-12.007-2.546-16.166-6.682c-4.144-4.174-6.682-9.817-6.686-16.17V194.814
		c0.004-6.338,2.538-11.988,6.686-16.155c4.167-4.144,9.809-6.682,16.166-6.698h49.034h306.02h49.037
		c6.331,0.016,11.985,2.546,16.151,6.698c4.156,4.174,6.694,9.817,6.698,16.155V365.751z"/>
	<rect x="167.59" y="336.155" class="st0" width="176.82" height="20.405"/>
	<rect x="167.59" y="388.618" class="st0" width="176.82" height="20.398"/>
	<rect x="167.59" y="435.255" class="st0" width="83.556" height="20.398"/>
	<path class="st0" d="M353.041,213.369c-9.263,0-16.767,7.508-16.767,16.774c0,9.251,7.504,16.759,16.767,16.759
		c9.263,0,16.77-7.508,16.77-16.759C369.811,220.877,362.305,213.369,353.041,213.369z"/>
	<path class="st0" d="M424.427,213.369c-9.262,0-16.77,7.508-16.77,16.774c0,9.251,7.508,16.759,16.77,16.759
		c9.258,0,16.766-7.508,16.766-16.759C441.193,220.877,433.685,213.369,424.427,213.369z"/>
</g>
</svg>